name D:\school\WTK\thesis\model\3dpredictsim\Results\batch_windlass\Pog_s1_tmt_aCst_d05_k800_WL30_ig24.mot
datacolumns 128
datarows 4
range 0.52584029 0.55739070
endheader
time	pelvis_tilt	pelvis_list	pelvis_rotation	pelvis_tx	pelvis_ty	pelvis_tz	hip_flexion_l	hip_adduction_l	hip_rotation_l	hip_flexion_r	hip_adduction_r	hip_rotation_r	knee_angle_l	knee_angle_r	ankle_angle_l	ankle_angle_r	subtalar_angle_l	subtalar_angle_r	tmt_angle_l	tmt_angle_r	mtp_angle_l	mtp_angle_r	lumbar_extension	lumbar_bending	lumbar_rotation	arm_flex_l	arm_add_l	arm_rot_l	arm_flex_r	arm_add_r	arm_rot_r	elbow_flex_l	elbow_flex_r	pro_sup_l	pro_sup_r	glut_med1_l/activation	glut_med2_l/activation	glut_med3_l/activation	glut_min1_l/activation	glut_min2_l/activation	glut_min3_l/activation	semimem_l/activation	semiten_l/activation	bifemlh_l/activation	bifemsh_l/activation	sar_l/activation	add_long_l/activation	add_brev_l/activation	add_mag1_l/activation	add_mag2_l/activation	add_mag3_l/activation	tfl_l/activation	pect_l/activation	grac_l/activation	glut_max1_l/activation	glut_max2_l/activation	glut_max3_l/activation	iliacus_l/activation	psoas_l/activation	quad_fem_l/activation	gem_l/activation	peri_l/activation	rect_fem_l/activation	vas_med_l/activation	vas_int_l/activation	vas_lat_l/activation	med_gas_l/activation	lat_gas_l/activation	soleus_l/activation	tib_post_l/activation	flex_dig_l/activation	flex_hal_l/activation	tib_ant_l/activation	per_brev_l/activation	per_long_l/activation	per_tert_l/activation	ext_dig_l/activation	ext_hal_l/activation	ercspn_l/activation	intobl_l/activation	extobl_l/activation	glut_med1_r/activation	glut_med2_r/activation	glut_med3_r/activation	glut_min1_r/activation	glut_min2_r/activation	glut_min3_r/activation	semimem_r/activation	semiten_r/activation	bifemlh_r/activation	bifemsh_r/activation	sar_r/activation	add_long_r/activation	add_brev_r/activation	add_mag1_r/activation	add_mag2_r/activation	add_mag3_r/activation	tfl_r/activation	pect_r/activation	grac_r/activation	glut_max1_r/activation	glut_max2_r/activation	glut_max3_r/activation	iliacus_r/activation	psoas_r/activation	quad_fem_r/activation	gem_r/activation	peri_r/activation	rect_fem_r/activation	vas_med_r/activation	vas_int_r/activation	vas_lat_r/activation	med_gas_r/activation	lat_gas_r/activation	soleus_r/activation	tib_post_r/activation	flex_dig_r/activation	flex_hal_r/activation	tib_ant_r/activation	per_brev_r/activation	per_long_r/activation	per_tert_r/activation	ext_dig_r/activation	ext_hal_r/activation	ercspn_r/activation	intobl_r/activation	extobl_r/activation	
          0.52584029	         -2.91794914	          1.36255731	         -5.38614426	          0.65730036	          0.86001375	          0.00103225	         30.80435913	          2.03209668	         -3.32480270	        -17.44476707	         -1.27235617	          6.54217288	        -18.16616108	        -10.26203424	          1.73741813	          0.05139676	          2.49276500	         12.64182639	         -0.20056484	         -8.51796845	          0.69155799	         28.57485573	         -0.93366910	          0.23941991	          1.72769365	         -8.18340066	        -13.53815090	          8.79708945	          4.68622590	        -13.48614100	         16.04147864	         16.66554192	         31.97119103	         86.51662706	         86.51662706	          0.05876393	          0.05876398	          0.05000016	          0.05876412	          0.05876408	          0.05876314	          0.05000025	          0.05000032	          0.05876388	          0.05000010	          0.05000067	          0.09539771	          0.22489169	          0.11323037	          0.11571018	          0.12541211	          0.05000017	          0.08116582	          0.05000106	          0.05000051	          0.05000058	          0.15473110	          0.05876408	          0.05253832	          0.34335151	          0.18202127	          0.12452793	          0.06565901	          0.20229732	          0.19780335	          0.16912354	          0.05592413	          0.05181783	          0.05529957	          0.05000003	          0.05000032	          0.05000052	          0.58217201	          0.25574617	          0.14722672	          0.45649420	          0.57358349	          0.26006655	          0.05000006	          0.10066302	          0.10551665	          0.27993515	          0.08026972	          0.05000014	          0.26275866	          0.17011097	          0.08117036	          0.05000181	          0.05000018	          0.05000015	          0.06091525	          0.07783825	          0.11576805	          0.14189780	          0.05000257	          0.05000215	          0.05000039	          0.22934752	          0.09539540	          0.05000168	          0.05000137	          0.05000080	          0.05000064	          0.24633339	          0.46153353	          0.05000016	          0.05000042	          0.05000027	          0.16070921	          0.15484239	          0.08189607	          0.08265987	          0.24884541	          0.31949684	          0.20514093	          0.18678857	          0.15974742	          0.22853751	          0.05000003	          0.09528805	          0.16339541	          0.05000017	          0.05000007	          0.05000016	          0.05000003	          0.06059168	          0.05748047	
          0.53635709	         -2.90515953	          1.44034251	         -5.61336866	          0.67344398	          0.85896035	          0.00084554	         30.09966005	          2.36757323	         -3.04848433	        -17.20777878	         -1.53544581	          6.31899788	        -18.31980700	        -12.26499495	          1.31021685	         -0.90478389	          1.94576486	         13.42483981	         -0.27455149	         -9.00489297	          0.85737134	         29.27230800	         -0.72381168	         -0.00097144	          1.78238922	         -9.15751027	        -13.54192710	          8.59397766	          4.41131450	        -13.51848221	         16.31039802	         16.57589831	         32.89352516	         86.51662706	         86.51662706	          0.05000002	          0.05000011	          0.13222182	          0.05000013	          0.05000012	          0.05000013	          0.05000008	          0.05000018	          0.05000009	          0.05000010	          0.05000122	          0.08117029	          0.19135172	          0.31050552	          0.24193101	          0.14105918	          0.05000053	          0.06906227	          0.08499102	          0.09073655	          0.10580628	          0.13165485	          0.05000020	          0.05876420	          0.34727190	          0.15487485	          0.10595601	          0.05876421	          0.24251944	          0.24144350	          0.20568273	          0.05876415	          0.05876409	          0.05000003	          0.05000006	          0.05876344	          0.05000169	          0.50551230	          0.22941687	          0.13582709	          0.38841776	          0.51491202	          0.22128058	          0.05000000	          0.08565025	          0.08978001	          0.23818597	          0.06829839	          0.05000242	          0.22357121	          0.14474084	          0.06906472	          0.05000281	          0.05000048	          0.05000114	          0.05183044	          0.06622975	          0.19949736	          0.33628095	          0.09692923	          0.05876701	          0.13639885	          0.19514301	          0.08116902	          0.05000187	          0.05001050	          0.05001488	          0.05876318	          0.20959552	          0.42379689	          0.05876381	          0.05876308	          0.05000032	          0.13674124	          0.13177088	          0.14701036	          0.13177034	          0.21173286	          0.27184741	          0.17454642	          0.15893114	          0.13592297	          0.19445373	          0.10401620	          0.08107697	          0.14453363	          0.05000017	          0.12424854	          0.05000211	          0.05527886	          0.05876411	          0.06902592	
          0.54687390	         -2.88939890	          1.52761905	         -5.81302617	          0.68972471	          0.85776931	          0.00067554	         29.21077542	          2.66420082	         -2.73187606	        -16.88159241	         -1.79007733	          6.08656223	        -18.68390481	        -14.44278448	          1.20706059	         -1.87961793	          1.35780536	         14.12995752	         -0.55265846	         -9.28598777	          0.90473123	         29.32581555	         -0.50619227	         -0.25852578	          1.82630765	        -10.11058838	        -13.55735306	          8.47201281	          4.08160107	        -13.55622604	         16.52103508	         16.46942875	         33.81247955	         86.51662706	         86.51662706	          0.27694014	          0.31150939	          0.42698939	          0.36383027	          0.22431714	          0.34163954	          0.07516032	          0.09260187	          0.08041278	          0.06906416	          0.05000152	          0.06906468	          0.16281378	          0.26419713	          0.20584982	          0.13329364	          0.05000025	          0.05876489	          0.09368191	          0.21840197	          0.17059224	          0.11202105	          0.05876378	          0.05000054	          0.29548018	          0.13177713	          0.25244577	          0.05000020	          0.23736406	          0.26085724	          0.21528049	          0.05000017	          0.05000023	          0.05477189	          0.05000014	          0.05000041	          0.05000073	          0.61781683	          0.19520189	          0.11556998	          0.43255380	          0.56227945	          0.32197781	          0.05550270	          0.08543522	          0.07639031	          0.27335470	          0.05811245	          0.05000001	          0.26933663	          0.12315441	          0.05876452	          0.06896154	          0.05000020	          0.05000011	          0.05000024	          0.05876393	          0.18416155	          0.28612862	          0.08247343	          0.05000304	          0.11605662	          0.22430190	          0.06906559	          0.05000034	          0.05000049	          0.05000029	          0.05000023	          0.17833695	          0.40583265	          0.05000003	          0.05000012	          0.05000005	          0.11634781	          0.11211875	          0.12508542	          0.11211828	          0.18015523	          0.23130437	          0.14851474	          0.13522835	          0.11565166	          0.16545319	          0.16925887	          0.14636449	          0.15252607	          0.26436065	          0.21378309	          0.12162403	          0.08438134	          0.05000009	          0.05873148	
          0.55739070	         -2.87322298	          1.61693765	         -5.97853964	          0.70586374	          0.85656092	          0.00048680	         28.26848030	          2.96004363	         -2.41909204	        -16.42327332	         -2.02990230	          5.85092144	        -19.00078564	        -16.84085622	          1.22058615	         -2.82830287	          0.73352490	         14.75237184	         -0.73483996	         -9.17453951	          1.04148332	         28.34969173	         -0.30668668	         -0.52188232	          1.86046807	        -10.97644738	        -13.57586211	          8.44467503	          3.74961933	        -13.59671010	         16.69662270	         16.30464875	         34.67914215	         86.51662706	         86.51662706	          0.39234900	          0.46409622	          0.53438554	          0.30956988	          0.43866225	          0.43048101	          0.06395111	          0.09332738	          0.06842036	          0.05876410	          0.05000019	          0.05876447	          0.13853193	          0.22479521	          0.17776981	          0.15993035	          0.05000025	          0.05000136	          0.07971067	          0.31460536	          0.23104139	          0.16866333	          0.05000003	          0.05000003	          0.25141262	          0.11212412	          0.21479648	          0.05000003	          0.32938283	          0.34449911	          0.28726270	          0.05000000	          0.05000002	          0.05000000	          0.09389114	          0.05000327	          0.05000056	          0.67932047	          0.16608969	          0.09833400	          0.41640321	          0.55129770	          0.40981872	          0.07090727	          0.07269351	          0.06499754	          0.23258689	          0.05000029	          0.05000021	          0.22916811	          0.10478736	          0.05000081	          0.09425524	          0.05000048	          0.05000107	          0.05000012	          0.05000087	          0.20681572	          0.24345603	          0.07017400	          0.07855606	          0.11211782	          0.22706604	          0.05876546	          0.05000089	          0.05000437	          0.05000454	          0.05000749	          0.15173998	          0.36261665	          0.05000030	          0.05000148	          0.05000050	          0.09899587	          0.09539854	          0.10643061	          0.09539755	          0.15328707	          0.19680789	          0.12636541	          0.13213882	          0.09840374	          0.14077812	          0.17178536	          0.12453592	          0.12977853	          0.22493428	          0.20394286	          0.10348530	          0.11954275	          0.05000001	          0.05000003	
